<svg width="214" height="21" fill="none" xmlns="http://www.w3.org/2000/svg"><path d="M136.874 1.2a.76.76 0 0 1 .49-.767.751.751 0 0 1 .319-.045h12.428a.777.777 0 0 1 .806.805v1.685a.779.779 0 0 1-.224.55.766.766 0 0 1-.546.225h-8.824a.742.742 0 0 0-.579.221.755.755 0 0 0-.217.584v3.213a.755.755 0 0 0 .469.706.737.737 0 0 0 .291.054h7.682a.745.745 0 0 1 .712.472.774.774 0 0 1 .055.297v1.805a.773.773 0 0 1-.218.542.75.75 0 0 1-.536.224H141.3a.738.738 0 0 0-.558.221.747.747 0 0 0-.215.565v2.933a.74.74 0 0 0 .211.545.728.728 0 0 0 .539.218h8.828a.778.778 0 0 1 .758.5c.04.1.058.209.054.317v1.724a.789.789 0 0 1-.226.55.778.778 0 0 1-.544.232h-12.529a.76.76 0 0 1-.744-.756V1.2ZM201.495 16.542c.045.098.074.163.107.228.364.737.732 1.474 1.103 2.21a.408.408 0 0 1-.324.593h-2.588a.623.623 0 0 1-.201-.068 2.376 2.376 0 0 1-1.216-1.271 10.967 10.967 0 0 0-.573-1.082c-.026-.046-.045-.114-.084-.13-.366-.167-.693-.454-1.117-.454h-7.05c-.195.006-.385.06-.554.157a2.055 2.055 0 0 0-1.016 1.091c-.182.402-.386.794-.611 1.174a.605.605 0 0 1-.217.208 2.721 2.721 0 0 1-1.686.395c-.524-.04-1.051 0-1.576 0a.42.42 0 0 1-.449-.394.423.423 0 0 1 .042-.216c.129-.296.278-.583.42-.873l8.653-17.4a.582.582 0 0 1 .783-.303c.106.06.191.153.242.264 1.111 2.21 2.217 4.422 3.317 6.636.969 1.955 1.939 3.903 2.912 5.843a.322.322 0 0 0 .324.199h5.85c.288 0 .372.084.372.374V16.2c0 .248-.097.346-.343.346h-4.52v-.004Zm-8.413-3.193h1.987a.392.392 0 0 0 .414-.255c.071-.163-1.437-3.415-2.133-4.908a.283.283 0 0 0-.304-.189.258.258 0 0 0-.255.202c-.039.105-.088.206-.136.307l-1.987 4.178a.43.43 0 0 0 .424.652c.66.016 1.333.013 1.996.013h-.006ZM162.912.068c1.344.035 2.672.306 3.925.799.385.165.76.353 1.122.564.233.161.475.308.725.44.528.208.502.723.677 1.127a.327.327 0 0 1-.052.137c-.414.596-.829 1.193-1.246 1.783a.823.823 0 0 1-.938.166 3.068 3.068 0 0 1-.308-.173 9.293 9.293 0 0 0-2.944-1.232c-.324-.078-.677-.071-1.013-.117a4.82 4.82 0 0 0-2.294.326 6.017 6.017 0 0 0-.932.508.359.359 0 0 0-.094.124l-.417.717a1.026 1.026 0 0 0 .139 1.098l.084.085a3.232 3.232 0 0 0 1.828 1.079c1.136.3 2.265.596 3.42.828.915.162 1.811.42 2.673.769.859.32 1.62.861 2.207 1.57.323.44.587.922.786 1.431a5.42 5.42 0 0 1 .291 2.65 5.635 5.635 0 0 1-.527 1.955 4.999 4.999 0 0 1-1.359 1.685 6.968 6.968 0 0 1-3.479 1.395c-.551.082-1.106.133-1.663.153a12.062 12.062 0 0 1-5.248-.994 15.1 15.1 0 0 1-2.301-1.326c-.055-.04-.103-.082-.158-.118a.717.717 0 0 1-.345-.48.736.736 0 0 1 .121-.579c.398-.606.803-1.206 1.211-1.805a.777.777 0 0 1 .899-.144c.259.153.508.326.777.466.754.388 1.498.792 2.265 1.124.457.16.927.281 1.404.362a6.102 6.102 0 0 0 1.916.033c.448-.055.885-.18 1.294-.372a4.92 4.92 0 0 0 .676-.469c.26-.159.457-.403.56-.69a.431.431 0 0 1 .055-.125 1.418 1.418 0 0 0 .094-1.443c0-.03 0-.072-.033-.092a5.39 5.39 0 0 0-.97-.782c-1.052-.531-2.213-.71-3.359-.925a18.958 18.958 0 0 1-2.999-.714 7.527 7.527 0 0 1-2.333-1.304 4.69 4.69 0 0 1-1.143-1.391 5.036 5.036 0 0 1-.527-3.106 5.374 5.374 0 0 1 .579-1.913 5.845 5.845 0 0 1 1.236-1.499c.321-.273.678-.5 1.061-.675a8.493 8.493 0 0 1 2.735-.762c.669-.056 1.294-.091 1.922-.144ZM175.457 9.982V1.163c0-.195.077-.383.214-.522a.732.732 0 0 1 .517-.217h2.187a.76.76 0 0 1 .758.756v17.598a.791.791 0 0 1-.228.59.775.775 0 0 1-.588.225h-2.126a.756.756 0 0 1-.725-.733l-.009-8.878ZM213.998 14.913a2.359 2.359 0 0 1-.395 1.303 2.315 2.315 0 0 1-3.586.35 2.354 2.354 0 0 1-.499-2.56 2.34 2.34 0 0 1 .861-1.05 2.319 2.319 0 0 1 1.296-.393 2.301 2.301 0 0 1 1.648.687 2.338 2.338 0 0 1 .675 1.663ZM193.088 13.349h-1.99 3.977-1.987ZM7.43 19.938H2.616c-.751 0-.87-.114-.877-.863v-4c0-.651.291-.915.948-.918h1.725a.866.866 0 0 1 .7.245.88.88 0 0 1 .26.7v.485c0 .744.324 1.073 1.055 1.08h4.53c1.508 0 2.735-2.06 2.265-3.452-.469-1.392-1.572-1.63-2.892-1.74-.667-.056-1.35.049-2.003-.13-1.055-.288-.777-1.213-.77-2.122 0-1.405 2.168-1.085 3.022-1.187a1.77 1.77 0 0 0 1.333-.736c.41-.49.622-1.119.592-1.76-.074-.828-.323-1.58-1.18-2.02-.322-.171-.68-.256-1.043-.248H6.427c-.766 0-1.042.29-1.051 1.05v.524a.853.853 0 0 1-.535.84.836.836 0 0 1-.345.056H2.57a.733.733 0 0 1-.769-.488.748.748 0 0 1-.04-.323c-.013-1.376-.013-2.75 0-4.123 0-.684.14-.808.803-.808 3.077 0 6.148 0 9.232.026.693.044 1.369.236 1.982.564a4.898 4.898 0 0 1 1.577 1.336c1.103 1.538 1.294 4.35.08 5.866-.323.41-.818.652-1.164 1.05-.599.68-.178.853.466 1.248.61.375 1.13.882 1.522 1.485.392.602.645 1.285.743 1.998.249 2.282-.676 4.723-2.818 5.726-2.143 1.004-4.52.64-6.754.64Z" fill="#802C40"></path><path d="M.998 10.06a3.39 3.39 0 0 1 .087-.883c.125-.31.308-.594.54-.834.27-.228.556-.433.858-.613.294-.208 1.55-.16 1.838.072.279.153.542.333.786.538.437.485.841 1.76.547 2.375a5.304 5.304 0 0 1-.757 1.131c-.35.408-1.838.652-2.314.414a3.019 3.019 0 0 1-1.417-1.219 3.12 3.12 0 0 1-.168-.98ZM116.035 9.845v8.998a.782.782 0 0 0 .764.766h2.106a.758.758 0 0 0 .747-.494.765.765 0 0 0 .049-.314V9.024a.457.457 0 0 1 0-.156.762.762 0 0 1 .149-.251.212.212 0 0 1 .235-.032.2.2 0 0 1 .066.051c.097.078.191.16.285.245l10.16 9.545c.385.358.77.717 1.162 1.069.223.199.482.094.708.02.227-.076.133-.265.133-.421V1.238a.773.773 0 0 0-.763-.778h-2.13a.74.74 0 0 0-.547.219.757.757 0 0 0-.219.55v10.008a.473.473 0 0 1 0 .176.553.553 0 0 1-.149.208c-.182.127-.304-.016-.421-.13L116.987.675c-.059-.056-.114-.111-.175-.16-.22-.163-.447-.052-.647 0-.156.049-.13.222-.13.362v8.968ZM70.764 6.762c0 1.757.016 3.513 0 5.27a4.856 4.856 0 0 1-.498 2.216 4.436 4.436 0 0 1-2.479 2.167 4.18 4.18 0 0 1-1.993.215c-.363-.05-.722-.12-1.078-.208a3.708 3.708 0 0 1-1.744-1.134c-.023-.03-.061-.05-.084-.082a9.133 9.133 0 0 1-.699-1.066 5.68 5.68 0 0 1-.456-2.525V1.232a.752.752 0 0 0-.467-.72.736.736 0 0 0-.297-.052h-2.126a.743.743 0 0 0-.7.466.757.757 0 0 0-.057.293v7.746c0 1.164.02 2.324.042 3.487-.008.396.027.792.104 1.18.146.819.418 1.61.806 2.343.111.232.236.457.372.675a8.498 8.498 0 0 0 1.715 1.756 8.02 8.02 0 0 0 1.821.978c.983.354 2.018.54 3.061.55.682.01 1.363-.041 2.036-.152a7.64 7.64 0 0 0 2.362-.78 7.122 7.122 0 0 0 2.035-1.534 7.33 7.33 0 0 0 1.097-1.61 8.56 8.56 0 0 0 .88-3.94c.016-3.585 0-7.147 0-10.719a.775.775 0 0 0-.225-.509.765.765 0 0 0-.506-.224H71.52a.75.75 0 0 0-.715.474.766.766 0 0 0-.055.298l.013 5.524ZM96.494.46h-1.42a.37.37 0 0 0-.337.19.377.377 0 0 0 .014.39c.766 1.274 1.53 2.555 2.307 3.822 1.342 2.194 2.698 4.377 4.035 6.567.367.606.556 1.304.543 2.014v5.39a.746.746 0 0 0 .761.776h2.129a.749.749 0 0 0 .547-.22.77.77 0 0 0 .226-.55c0-1.896-.016-3.792 0-5.686.02-.428.112-.848.272-1.245.16-.376.357-.736.589-1.072a3582.02 3582.02 0 0 1 4.763-7.72c.404-.678.825-1.33 1.229-2.024.211-.355.036-.632-.368-.632h-2.502c-.446 0-.796.277-1.194.417-.026 0-.042.049-.061.075-.324.518-.667 1.03-.971 1.554-1.032 1.734-2.051 3.47-3.08 5.214a2.268 2.268 0 0 1-.292.372.353.353 0 0 1-.309.106.357.357 0 0 1-.267-.19c-.038-.07-.071-.14-.113-.21-1.207-2.04-2.423-4.076-3.61-6.13A2.376 2.376 0 0 0 98.328.633a1.303 1.303 0 0 0-.63-.166c-.415.016-.816-.006-1.214-.006h.01ZM87.08 11.62v-7.17a.744.744 0 0 1 .754-.759h3.921c.2 0 .393-.08.536-.222a.768.768 0 0 0 .225-.537V1.19a.788.788 0 0 0-.232-.537.777.777 0 0 0-.535-.226H78.7a.78.78 0 0 0-.535.228.791.791 0 0 0-.232.538v1.724a.771.771 0 0 0 .472.718.756.756 0 0 0 .295.057h3.86a.752.752 0 0 1 .8.5.767.767 0 0 1 .042.335v14.306a.778.778 0 0 0 .472.72c.093.039.193.06.295.06h2.096a.771.771 0 0 0 .736-.489.786.786 0 0 0 .057-.307l.02-7.196Z" fill="#802C40"></path><path d="M116.035 9.845V.89c0-.14-.026-.326.13-.362.21-.065.437-.176.647 0 .061.049.116.104.175.16l11.383 10.816c.117.114.239.257.421.13a.552.552 0 0 0 .149-.208.473.473 0 0 0 0-.176V1.229a.757.757 0 0 1 .219-.55.754.754 0 0 1 .547-.22h2.13a.76.76 0 0 1 .542.23.773.773 0 0 1 .221.55v17.855c0 .156.049.358-.133.42-.181.062-.485.18-.708-.02-.392-.351-.777-.71-1.162-1.068l-10.173-9.539a6.809 6.809 0 0 0-.285-.244.206.206 0 0 0-.229-.062.218.218 0 0 0-.072.042.762.762 0 0 0-.149.251.457.457 0 0 0 0 .156v9.777a.765.765 0 0 1-.796.808h-2.106a.772.772 0 0 1-.535-.227.786.786 0 0 1-.229-.538l.013-9.005ZM70.754 6.762v-5.54a.762.762 0 0 1 .474-.718.749.749 0 0 1 .296-.054h2.165c.19.008.371.088.506.224a.775.775 0 0 1 .225.509v10.719a8.56 8.56 0 0 1-.88 3.94 7.326 7.326 0 0 1-1.097 1.61 7.123 7.123 0 0 1-2.035 1.534 7.64 7.64 0 0 1-2.362.78c-.673.11-1.354.162-2.035.153a9.325 9.325 0 0 1-3.061-.551 8.02 8.02 0 0 1-1.822-.978 8.501 8.501 0 0 1-1.735-1.763 7.155 7.155 0 0 1-.372-.675 8.043 8.043 0 0 1-.805-2.343 5.502 5.502 0 0 1-.104-1.18 207.898 207.898 0 0 1-.042-3.487V1.196a.758.758 0 0 1 .467-.704.743.743 0 0 1 .29-.055h2.126a.736.736 0 0 1 .713.473.752.752 0 0 1 .05.3v10.382a5.68 5.68 0 0 0 .457 2.526c.208.37.441.727.699 1.065.023.033.061.053.084.082a3.71 3.71 0 0 0 1.744 1.134c.355.088.715.157 1.078.209a4.18 4.18 0 0 0 1.993-.216 4.436 4.436 0 0 0 2.478-2.167c.34-.688.51-1.448.499-2.216.022-1.756 0-3.513 0-5.27l.006.023ZM96.485.46h1.2c.221 0 .438.058.631.166.452.223.822.586 1.055 1.036 1.188 2.053 2.404 4.09 3.611 6.13.042.069.075.14.114.209a.36.36 0 0 0 .433.175.353.353 0 0 0 .142-.09c.11-.114.208-.239.292-.372 1.029-1.734 2.048-3.47 3.08-5.214.324-.525.741-1.245 1.071-1.76a.587.587 0 0 1 .223-.209c.309-.07.626-.097.942-.078h2.501c.405 0 .579.277.369.632-.401.681-.822 1.35-1.239 2.024l-4.763 7.72a6.065 6.065 0 0 0-.589 1.073c-.16.396-.252.817-.272 1.245-.026 1.893 0 3.79 0 5.686a.757.757 0 0 1-.226.549.766.766 0 0 1-.547.22h-2.129a.736.736 0 0 1-.711-.476.746.746 0 0 1-.05-.3v-5.39a3.755 3.755 0 0 0-.543-2.014c-1.337-2.19-2.692-4.373-4.035-6.566-.777-1.268-1.54-2.549-2.307-3.823a.377.377 0 0 1 .128-.532.37.37 0 0 1 .195-.048c.476.003.948.007 1.424.007ZM87.069 18.814a.785.785 0 0 1-.488.739.77.77 0 0 1-.305.056H84.17a.76.76 0 0 1-.71-.481.779.779 0 0 1-.057-.298V4.523a.769.769 0 0 0-.222-.62.757.757 0 0 0-.62-.214h-3.86a.756.756 0 0 1-.711-.478.77.77 0 0 1-.056-.298V1.19a.791.791 0 0 1 .232-.538.78.78 0 0 1 .535-.228h13.037c.2.003.392.084.535.226a.788.788 0 0 1 .232.536V2.93a.769.769 0 0 1-.225.537.757.757 0 0 1-.535.222h-3.922a.733.733 0 0 0-.701.466.748.748 0 0 0-.053.293v14.366ZM20.513 1.19a.764.764 0 0 1 .49-.767.75.75 0 0 1 .319-.045H33.75A.769.769 0 0 1 34.5.87c.039.1.057.206.054.313v1.685a.773.773 0 0 1-.222.55.76.76 0 0 1-.545.225h-8.824a.746.746 0 0 0-.751.492.761.761 0 0 0-.045.317v3.2a.755.755 0 0 0 .466.705.74.74 0 0 0 .291.054h7.685a.746.746 0 0 1 .713.474.762.762 0 0 1 .054.299v1.802a.76.76 0 0 1-.464.708.747.747 0 0 1-.29.058h-7.682a.741.741 0 0 0-.557.222.753.753 0 0 0-.216.563v2.933a.738.738 0 0 0 .458.711.725.725 0 0 0 .293.052h8.827a.779.779 0 0 1 .756.503c.04.101.057.21.053.318v1.724c0 .206-.08.403-.224.55a.773.773 0 0 1-.543.232h-12.53a.755.755 0 0 1-.525-.227.765.765 0 0 1-.218-.532V1.19ZM54.815 19.658h-1.22a.765.765 0 0 1-.294-.088 2.388 2.388 0 0 1-1.214-1.304 9.822 9.822 0 0 0-.556-1.046.523.523 0 0 0-.207-.195c-.22-.118-.447-.222-.674-.326a.727.727 0 0 0-.262-.056h-7.18a.965.965 0 0 0-.382.114 2.127 2.127 0 0 0-1.139 1.21c-.167.373-.354.737-.56 1.091-.025.052-.048.127-.093.147-.414.163-.767.472-1.256.456-.686-.023-1.375 0-2.064 0-.447 0-.631-.29-.43-.694l4.141-8.343C43.06 7.34 44.69 4.057 46.315.78a.61.61 0 0 1 .809-.274.55.55 0 0 1 .213.241c1.434 2.872 2.864 5.746 4.287 8.62l4.802 9.66a.413.413 0 0 1-.166.595.405.405 0 0 1-.225.037h-1.22Zm-7.976-6.225h1.941c.418 0 .608-.287.43-.671-.698-1.506-1.4-3.01-2.106-4.514a.28.28 0 0 0-.282-.17.254.254 0 0 0-.258.17c-.04.088-.078.18-.123.268-.67 1.417-1.346 2.832-2.016 4.236a.436.436 0 0 0 .181.635c.076.034.16.046.243.033l1.99.013Z" fill="#802C40"></path></svg>